<svg width="18" height="18" viewBox="0 0 18 18" fill="none" xmlns="http://www.w3.org/2000/svg">
<path fill-rule="evenodd" clip-rule="evenodd" d="M1.49875 0V16.2512C1.49875 16.3893 1.61068 16.5012 1.74875 16.5012H4V16.5V7C4 6.44771 4.44772 6 5 6H8C8.55228 6 9 6.44772 9 7V16.5V16.5012H11V16.5V3C11 2.44772 11.4477 2 12 2H15C15.5523 2 16 2.44772 16 3V16.5V16.5012H18V18.0012H1.74875C0.782251 18.0012 -0.00125122 17.2177 -0.00125122 16.2512V0H1.49875ZM5.5 7.5V16.5H7.5V7.5H5.5ZM12.5 16.5V3.5H14.5V16.5H12.5Z" fill="#111727"/>
</svg>
