<svg width="16" height="18" viewBox="0 0 16 18" fill="none" xmlns="http://www.w3.org/2000/svg">
<path fill-rule="evenodd" clip-rule="evenodd" d="M13.025 6.34717C11.6713 6.76384 9.89235 6.99888 7.99258 6.99888C6.09281 6.99888 4.3139 6.76384 2.96015 6.34717C2.44487 6.18857 1.9404 5.9884 1.49999 5.73285V9H1.50287L1.50287 9.00139C1.50287 10.1051 4.41022 10.9999 7.99661 10.9999C11.583 10.9999 14.4904 10.1051 14.4904 9.00139L14.4904 9H14.491V5.72948C14.0492 5.98664 13.5425 6.18788 13.025 6.34717ZM15.9855 3.49609C15.9836 2.51292 15.3399 1.86047 14.8578 1.50967C14.3423 1.1345 13.6927 0.859176 13.025 0.653661C11.6713 0.236986 9.89235 0.00195312 7.99258 0.00195312C6.09281 0.00195312 4.3139 0.236986 2.96015 0.653661C2.29244 0.859176 1.64287 1.1345 1.12733 1.50967C0.644543 1.86099 -0.000321388 2.51483 -0.000321388 3.50042C-0.000321388 3.5129 -0.000217438 3.52534 -1.23978e-05 3.53772V14.5078H0.00299358C0.00599957 15.4899 0.649497 16.1415 1.13119 16.4919C1.6469 16.867 2.29667 17.1422 2.96464 17.3477C4.31893 17.7643 6.09859 17.9994 7.99923 17.9994C9.89987 17.9994 11.6795 17.7643 13.0338 17.3477C13.7018 17.1422 14.3516 16.867 14.8673 16.4919C15.3501 16.1407 15.9955 15.4868 15.9955 14.5009V14.5005H15.991V3.49609H15.9855ZM14.4952 14.5195C14.4627 15.6147 11.5668 16.4994 7.99923 16.4994C4.41145 16.4994 1.50298 15.6046 1.50298 14.5009V14.5005H1.49999V11.2319C1.94123 11.4884 2.447 11.6892 2.96364 11.8482C4.31752 12.2648 6.09662 12.4999 7.99661 12.4999C9.8966 12.4999 11.6757 12.2648 13.0296 11.8482C13.5453 11.6894 14.0503 11.4891 14.491 11.2332V14.5195H14.4952ZM7.99258 5.49888C4.42801 5.49888 1.53434 4.61476 1.49999 3.52012V3.5H1.49968C1.50041 2.39647 4.4071 1.50195 7.99258 1.50195C11.5785 1.50195 14.4855 2.3967 14.4855 3.50042C14.4855 4.60414 11.5785 5.49888 7.99258 5.49888ZM4.99988 8.5C4.99988 9.05229 4.55216 9.5 3.99988 9.5C3.44759 9.5 2.99988 9.05229 2.99988 8.5C2.99988 7.94772 3.44759 7.5 3.99988 7.5C4.55216 7.5 4.99988 7.94772 4.99988 8.5ZM3.99988 15C4.55216 15 4.99988 14.5523 4.99988 14C4.99988 13.4477 4.55216 13 3.99988 13C3.44759 13 2.99988 13.4477 2.99988 14C2.99988 14.5523 3.44759 15 3.99988 15Z" fill="#111727"/>
</svg>
