<svg width="18" height="18" viewBox="0 0 18 18" fill="none" xmlns="http://www.w3.org/2000/svg">
<path fill-rule="evenodd" clip-rule="evenodd" d="M5.81249 0C4.2592 0 3.00001 1.25919 3.00001 2.81248C3.00001 3.34748 3.14939 3.84759 3.40871 4.27337C2.29877 4.64979 1.5 5.70036 1.5 6.93749C1.5 7.47249 1.64938 7.9726 1.90871 8.39838C0.798767 8.7748 0 9.82537 0 11.0625C0 12.2996 0.798767 13.3502 1.90871 13.7266C1.64938 14.1524 1.5 14.6525 1.5 15.1875C1.5 16.7408 2.7592 18 4.31249 18H13.6876C15.2408 18 16.5 16.7408 16.5 15.1875C16.5 14.6525 16.3507 14.1524 16.0913 13.7266C17.2013 13.3502 18 12.2996 18 11.0625C18 9.82537 17.2013 8.7748 16.0913 8.39838C16.3507 7.9726 16.5 7.47249 16.5 6.93749C16.5 5.70036 15.7013 4.64979 14.5913 4.27337C14.8507 3.84759 15 3.34748 15 2.81248C15 1.25919 13.7408 0 12.1876 0H5.81249ZM4.50001 2.81248C4.50001 2.08762 5.08763 1.5 5.81249 1.5H12.1876C12.9124 1.5 13.5 2.08762 13.5 2.81248C13.5 3.53735 12.9124 4.12496 12.1876 4.12496H5.81249C5.08763 4.12496 4.50001 3.53735 4.50001 2.81248ZM3.00001 6.93749C3.00001 6.21263 3.58763 5.62501 4.31249 5.62501H13.6876C14.4124 5.62501 15 6.21263 15 6.93749C15 7.66236 14.4124 8.24998 13.6876 8.24998H4.31249C3.58763 8.24998 3.00001 7.66236 3.00001 6.93749ZM4.31249 13.875C3.58763 13.875 3.00001 14.4627 3.00001 15.1875C3.00001 15.9124 3.58763 16.5 4.31249 16.5H13.6876C14.4124 16.5 15 15.9124 15 15.1875C15 14.4627 14.4124 13.875 13.6876 13.875H4.31249ZM1.5 11.0625C1.5 10.3376 2.08762 9.75002 2.81248 9.75002H15.1876C15.9124 9.75002 16.5 10.3376 16.5 11.0625C16.5 11.7874 15.9124 12.375 15.1876 12.375H2.81248C2.08762 12.375 1.5 11.7874 1.5 11.0625Z" fill="#111727"/>
</svg>
