<svg width="20" height="18" viewBox="0 0 20 18" fill="none" xmlns="http://www.w3.org/2000/svg">
<path fill-rule="evenodd" clip-rule="evenodd" d="M8.27967 0C7.20703 0 6.23228 0.623678 5.78278 1.59759L5.13552 3H2C0.895431 3 0 3.89543 0 5V15C0 16.6569 1.34315 18 3 18H17C18.6569 18 20 16.6569 20 15V5C20 3.89543 19.1046 3 18 3H14.8645L14.2172 1.59759C13.7677 0.623674 12.793 0 11.7203 0H8.27967ZM13.2124 3L12.8553 2.22618C12.651 1.78349 12.2079 1.5 11.7203 1.5H8.27967C7.79211 1.5 7.34904 1.78349 7.14472 2.22618L6.78757 3H13.2124ZM2 4.5H18C18.2761 4.5 18.5 4.72386 18.5 5V7.35083C13.4874 8.54981 6.5126 8.5498 1.5 7.35081V5C1.5 4.72386 1.72386 4.5 2 4.5ZM10.75 9.74399C13.4738 9.6999 16.1673 9.41544 18.5 8.89062V15C18.5 15.8284 17.8284 16.5 17 16.5H3C2.17157 16.5 1.5 15.8284 1.5 15V8.8906C3.83272 9.41543 6.52621 9.69989 9.25 9.74399V12H10.75V9.74399Z" fill="#111727"/>
</svg>
