<svg width="20" height="19" viewBox="0 0 20 19" fill="none" xmlns="http://www.w3.org/2000/svg">
<path fill-rule="evenodd" clip-rule="evenodd" d="M12.1418 6.97916L11.7932 6.2042L9.9992 2.21626L8.20525 6.20418L7.85664 6.97913L7.01273 7.07852L2.64655 7.59271L5.95896 10.3465L6.67922 10.9453L6.45733 11.8553L5.44418 16.0104L9.26491 13.8656L9.99916 13.4534L10.7334 13.8656L14.5551 16.0109L13.5427 11.855L13.321 10.9452L14.0411 10.3465L17.3534 7.59279L12.9858 7.07852L12.1418 6.97916ZM6.83729 5.58881L1.31408 6.23927C0.441407 6.34204 0.116058 7.43962 0.791754 8.00137L5.00002 11.5L3.7144 16.7725C3.50729 17.6219 4.41308 18.3094 5.17544 17.8814L9.99917 15.1736L14.8236 17.8818C15.5859 18.3097 16.4916 17.6224 16.2847 16.773L15 11.5L19.2082 8.00142C19.8839 7.43966 19.5586 6.34207 18.6859 6.23932L13.1612 5.58881L10.9112 0.587238C10.5574 -0.199088 9.44094 -0.199081 9.08721 0.58725L6.83729 5.58881Z" fill="#111727"/>
</svg>
