<svg width="18" height="17" viewBox="0 0 18 17" fill="none" xmlns="http://www.w3.org/2000/svg">
<path fill-rule="evenodd" clip-rule="evenodd" d="M18.0033 4.33045C17.0598 4.85141 16.0462 5.27915 14.9878 5.61367C14.9959 5.7414 15 5.87022 15 6V9.02412H18V10.5241H15V11C15 12.0888 14.71 13.1099 14.203 13.9902C15.1695 14.4802 16.0933 15.1137 16.949 15.8906L15.9407 17.0012C15.1137 16.2504 14.2165 15.6524 13.2778 15.2072C12.1893 16.3138 10.6748 17 9 17C7.3252 17 5.81067 16.3138 4.72223 15.2072C3.7835 15.6524 2.88634 16.2504 2.05931 17.0012L1.05104 15.8906C1.9068 15.1137 2.8305 14.4803 3.79705 13.9902C3.29003 13.1099 3 12.0888 3 11V10.5241H2.28882e-05V9.02412H3V6C3 5.87018 3.00412 5.74133 3.01224 5.61356C1.95389 5.27905 0.940491 4.85135 -0.0029068 4.33045L0.722138 3.01732C1.52855 3.46258 2.39344 3.83338 3.29724 4.1297C4.08318 1.73182 6.33934 0 9 0C11.6607 0 13.9169 1.73187 14.7028 4.12981C15.6067 3.83346 16.4717 3.46264 17.2782 3.01732L18.0033 4.33045ZM9.75 6.50062C11.0184 6.45501 12.28 6.2936 13.5 6.01637V11C13.5 13.4853 11.4853 15.5 9 15.5C6.51472 15.5 4.5 13.4853 4.5 11V6.01629C5.72003 6.29354 6.9816 6.45498 8.25 6.50061V10.5H9.75V6.50062ZM9 1.5C7.02817 1.5 5.35255 2.76824 4.74436 4.53352C7.49918 5.17426 10.5008 5.17429 13.2557 4.53359C12.6475 2.76828 10.9719 1.5 9 1.5Z" fill="#111727"/>
</svg>
