<svg width="18" height="18" viewBox="0 0 18 18" fill="none" xmlns="http://www.w3.org/2000/svg">
<path fill-rule="evenodd" clip-rule="evenodd" d="M1.5 7.5L1.5 2.5C1.5 1.94772 1.94772 1.5 2.5 1.5L5.5 1.5C6.05228 1.5 6.5 1.94772 6.5 2.5V7.5C6.5 8.05229 6.05228 8.5 5.5 8.5H2.5C1.94772 8.5 1.5 8.05229 1.5 7.5ZM2.5 10C1.11929 10 0 8.88071 0 7.5V2.5C0 1.11929 1.11929 0 2.5 0H5.5C6.88071 0 8 1.11929 8 2.5V7.5C8 8.88071 6.88071 10 5.5 10H2.5ZM11.5 3.5V2.5C11.5 1.94772 11.9477 1.5 12.5 1.5L15.5 1.5C16.0523 1.5 16.5 1.94772 16.5 2.5V3.5C16.5 4.05228 16.0523 4.5 15.5 4.5H12.5C11.9477 4.5 11.5 4.05228 11.5 3.5ZM12.5 6C11.1193 6 10 4.88071 10 3.5V2.5C10 1.11929 11.1193 0 12.5 0H15.5C16.8807 0 18 1.11929 18 2.5V3.5C18 4.88071 16.8807 6 15.5 6H12.5ZM11.5 10.5V15.5C11.5 16.0523 11.9477 16.5 12.5 16.5H15.5C16.0523 16.5 16.5 16.0523 16.5 15.5V10.5C16.5 9.94772 16.0523 9.5 15.5 9.5H12.5C11.9477 9.5 11.5 9.94772 11.5 10.5ZM10 15.5C10 16.8807 11.1193 18 12.5 18H15.5C16.8807 18 18 16.8807 18 15.5V10.5C18 9.11929 16.8807 8 15.5 8H12.5C11.1193 8 10 9.11929 10 10.5V15.5ZM1.5 15.5V14.5C1.5 13.9477 1.94772 13.5 2.5 13.5H5.5C6.05228 13.5 6.5 13.9477 6.5 14.5V15.5C6.5 16.0523 6.05228 16.5 5.5 16.5H2.5C1.94772 16.5 1.5 16.0523 1.5 15.5ZM2.5 18C1.11929 18 0 16.8807 0 15.5V14.5C0 13.1193 1.11929 12 2.5 12H5.5C6.88071 12 8 13.1193 8 14.5V15.5C8 16.8807 6.88071 18 5.5 18H2.5Z" fill="#FF4F12"/>
</svg>
