<svg width="22" height="17" viewBox="0 0 22 17" fill="none" xmlns="http://www.w3.org/2000/svg">
<path fill-rule="evenodd" clip-rule="evenodd" d="M10.2498 14.9872C7.50571 13.7746 4.50716 13.2274 1.50022 13.3989L1.50002 1.64392L2.86863 1.54627C5.10377 1.38679 7.3493 1.63472 9.49582 2.27796L10.2498 2.5039V14.9872ZM11.7498 14.9875C14.494 13.7747 17.4928 13.2274 20.5 13.3989L20.4998 1.64392L19.1311 1.54627C16.896 1.38679 14.6505 1.63472 12.5039 2.27796L11.7498 2.50397V14.9875ZM3.81481e-06 0.479937C-3.91269e-08 0.348768 0.101375 0.239901 0.232212 0.230566L2.76188 0.0500746C5.17825 -0.122333 7.60584 0.145691 9.9264 0.841091L10.9281 1.14127C10.9749 1.1553 11.0248 1.1553 11.0716 1.14127L12.0734 0.841092C14.3939 0.145691 16.8215 -0.122333 19.2379 0.0500744L21.7676 0.230566C21.8984 0.239901 21.9998 0.348763 21.9998 0.479928L22 14.7393C22 14.8844 21.8769 14.999 21.7322 14.9887L20.6635 14.9124C17.3458 14.6757 14.0294 15.3908 11.1041 16.9737C11.0392 17.0088 10.961 17.0088 10.8962 16.9737C7.97081 15.3908 4.65445 14.6757 1.33673 14.9124L0.268033 14.9887C0.123324 14.999 0.000242281 14.8844 0.000239879 14.7393L3.81481e-06 0.479937Z" fill="#111727"/>
</svg>
