<svg width="16" height="18" viewBox="0 0 16 18" fill="none" xmlns="http://www.w3.org/2000/svg">
<path fill-rule="evenodd" clip-rule="evenodd" d="M13.3788 13.5L12.7683 5.65106C12.5861 3.30819 10.6318 1.5 8.28188 1.5H7.71812C5.36818 1.5 3.41389 3.30819 3.23167 5.65105L2.6212 13.5L13.3788 13.5ZM1.73619 5.53474L1.11667 13.5L0 13.5V15L0.999999 15H2.50453H4.12602C4.57006 16.7252 6.13616 18 8 18C9.86384 18 11.4299 16.7252 11.874 15H13.4955H15H16V13.5H14.8833L14.2638 5.53474C14.0208 2.41092 11.4151 0 8.28188 0H7.71812C4.58487 0 1.97915 2.41092 1.73619 5.53474ZM10.292 15L5.70802 15C6.0938 15.883 6.97484 16.5 8 16.5C9.02516 16.5 9.9062 15.883 10.292 15Z" fill="#111727"/>
</svg>
